<svg xmlns="http://www.w3.org/2000/svg" width="189" height="52" fill="none"><g clip-path="url(#a)"><path fill="#9C9C9C" d="M15.402 30.76v6.86c0 3.43-1.51 4.667-3.911 4.667S7.58 41.05 7.58 37.62V11.685c0-3.43 1.51-4.735 3.911-4.735s3.91 1.305 3.91 4.735v5.146h7.136v-4.666C22.538 4.48 18.695.09 11.286.09 3.875.09.033 4.48.033 12.165V37.14c0 7.684 3.842 12.076 11.253 12.076 7.41 0 11.252-4.392 11.252-12.076v-6.38h-7.136ZM43.877.638l7.685 48.028h-7.616l-1.304-8.714h-9.262l-1.304 8.714h-6.93L32.83.64h11.046Zm-5.969 8.507-3.567 24.29h7.271L38.045 9.145h-.136l-.002.001Zm40.618 39.521H70.84c-.411-1.235-.686-1.99-.686-5.901v-7.547c0-4.46-1.51-6.107-4.94-6.107h-2.607v19.555H55.06V.64h11.39c7.82 0 11.182 3.636 11.182 11.047v3.773c0 4.94-1.578 8.096-4.94 9.674 3.775 1.715 5.009 5.283 5.009 10.292v7.41c0 2.333.07 4.048.824 5.832ZM66.243 7.5h-3.636v14.753h2.95c2.814 0 4.528-1.234 4.528-5.077V12.44c0-3.43-1.165-4.94-3.842-4.94ZM101.526.64l7.685 48.028h-7.616l-1.303-8.714h-9.263l-1.303 8.714h-6.93L90.48.64h11.046Zm-5.969 8.507-3.567 24.29h7.273L95.695 9.145h-.138v.001ZM116.193.64h-7.616l7.409 48.028h11.253L134.648.64h-6.929l-5.695 39.175h-.138L116.193.64Zm36.552 0 7.684 48.028h-7.616l-1.303-8.714h-9.262l-1.305 8.714h-6.929L141.699.64h11.046Zm-5.969 8.507-3.568 24.29h7.273l-3.568-24.291h-.137v.001Zm34.348 39.521h7.753V.64h-6.724v28.747h-.138L174.4.64h-9.468v48.028h6.793V13.88h.136l9.263 34.788Z"/></g><defs><clipPath id="a"><path fill="#fff" d="M.033.09h188.844v51.258H.033z"/></clipPath></defs></svg>