<svg xmlns="http://www.w3.org/2000/svg" width="206" height="53" fill="none"><g fill="#9C9C9C" clip-path="url(#a)"><path fill-rule="evenodd" d="M31.215 22.748h3.665c3.788 0 5.834 4.44 3.367 7.317l-3.588 4.182a9.971 9.971 0 0 0 3.667 6.28 9.994 9.994 0 0 0 13.517-1.04 9.967 9.967 0 0 0 2.665-6.767 3.319 3.319 0 0 1 3.326-3.323 3.329 3.329 0 0 1 3.328 3.323 16.604 16.604 0 0 1-8.99 14.752 16.656 16.656 0 0 1-20.957-4.782 16.657 16.657 0 0 1-26.806-.254 16.605 16.605 0 0 1-3.142-9.716 3.322 3.322 0 0 1 3.328-3.323 3.329 3.329 0 0 1 3.327 3.323 9.964 9.964 0 0 0 2.652 6.784 9.986 9.986 0 0 0 17.199-5.258l-3.591-4.182c-2.466-2.876-.42-7.315 3.372-7.315l3.661-.001Z" clip-rule="evenodd"/><path d="M46.742 13.886a6.65 6.65 0 0 0 6.148-9.193A6.648 6.648 0 0 0 46.742.591a6.65 6.65 0 0 0-6.146 9.192 6.65 6.65 0 0 0 6.146 4.103Zm-31.055 0a6.65 6.65 0 0 0 6.147-9.193 6.652 6.652 0 0 0-8.693-3.598 6.65 6.65 0 0 0-3.602 8.689 6.65 6.65 0 0 0 6.148 4.102Zm91.634-11.67c1.025 0 1.866.292 2.525.877.658.586.987 1.355.987 2.307v32.825c0 .989-.31 1.775-.933 2.36-.621.586-1.445.879-2.469.879-1.025 0-1.848-.293-2.471-.877-.622-.587-.933-1.373-.933-2.36v-1.374c-.806 1.5-1.977 2.67-3.514 3.513-1.5.841-3.22 1.262-5.16 1.262-2.306 0-4.373-.585-6.202-1.756-1.794-1.17-3.202-2.818-4.227-4.941-.99-2.158-1.483-4.628-1.483-7.41 0-2.78.494-5.214 1.483-7.301 1.025-2.085 2.433-3.696 4.227-4.83 1.793-1.135 3.86-1.703 6.202-1.703 1.94 0 3.66.404 5.161 1.209a8.372 8.372 0 0 1 3.457 3.403V5.29c0-.914.293-1.647.878-2.196.624-.585 1.446-.878 2.472-.878ZM97.165 36.303c2.196 0 3.879-.75 5.05-2.251 1.207-1.5 1.812-3.642 1.812-6.422 0-2.782-.605-4.905-1.812-6.367-1.171-1.501-2.835-2.253-4.995-2.253-2.196 0-3.898.733-5.105 2.198-1.208 1.463-1.812 3.568-1.812 6.313 0 2.78.604 4.94 1.812 6.477 1.207 1.538 2.89 2.305 5.05 2.305Zm32.968 5.324c-2.744 0-5.16-.566-7.245-1.7-2.05-1.135-3.642-2.763-4.776-4.886-1.135-2.124-1.703-4.593-1.703-7.411 0-2.818.567-5.27 1.703-7.356 1.134-2.123 2.726-3.75 4.775-4.885 2.086-1.135 4.502-1.703 7.246-1.703 2.745 0 5.142.567 7.191 1.703a11.396 11.396 0 0 1 4.776 4.885c1.135 2.086 1.702 4.538 1.702 7.356 0 2.819-.567 5.287-1.702 7.41a11.396 11.396 0 0 1-4.776 4.886c-2.049 1.133-4.447 1.701-7.191 1.701Zm-.054-5.324c2.232 0 3.933-.732 5.104-2.196 1.172-1.463 1.758-3.623 1.758-6.477 0-2.818-.586-4.959-1.758-6.422-1.171-1.502-2.854-2.252-5.05-2.252-2.195 0-3.898.75-5.104 2.252-1.171 1.463-1.758 3.604-1.758 6.422 0 2.854.586 5.014 1.758 6.477 1.171 1.464 2.854 2.196 5.05 2.196Zm42.113-22.506c1.026 0 1.848.293 2.47.877.623.586.934 1.373.934 2.36V38.72c0 4.208-1.171 7.392-3.513 9.552-2.343 2.159-5.8 3.238-10.375 3.238-3.989 0-7.319-.749-9.99-2.25-1.355-.806-2.032-1.775-2.032-2.91 0-.805.184-1.444.549-1.92a1.924 1.924 0 0 1 1.537-.715c.33 0 .732.074 1.208.22.475.183.97.385 1.481.604 1.147.487 2.32.909 3.514 1.262 1.062.293 2.269.44 3.623.44 4.794 0 7.191-2.342 7.191-7.028V35.7c-.805 1.501-1.976 2.67-3.512 3.514-1.538.805-3.294 1.207-5.27 1.207-2.343 0-4.429-.55-6.259-1.646-1.793-1.136-3.201-2.708-4.226-4.72-1.025-2.015-1.538-4.337-1.538-6.973 0-2.635.495-4.959 1.482-6.971 1.026-2.05 2.453-3.623 4.282-4.721 1.83-1.135 3.916-1.703 6.259-1.703 1.976 0 3.732.421 5.27 1.263a8.218 8.218 0 0 1 3.512 3.459V16.98c0-.95.312-1.72.934-2.306.621-.584 1.446-.877 2.469-.877Zm-10.374 21.299c2.196 0 3.897-.715 5.104-2.14 1.245-1.43 1.867-3.387 1.867-5.875 0-2.525-.622-4.501-1.867-5.928-1.207-1.428-2.908-2.141-5.104-2.141-2.159 0-3.862.713-5.105 2.14-1.244 1.428-1.867 3.404-1.867 5.929 0 2.488.623 4.446 1.867 5.874 1.243 1.427 2.946 2.14 5.105 2.14Zm30.601 6.531c-3.989 0-7.208-.786-9.661-2.36-1.171-.695-1.756-1.684-1.756-2.964 0-.732.201-1.318.603-1.756.403-.476.897-.715 1.482-.715.622 0 1.483.294 2.581.88 1.171.548 2.232.97 3.183 1.262.989.293 2.233.438 3.733.438 1.537 0 2.727-.256 3.569-.768.878-.513 1.316-1.225 1.316-2.141 0-.62-.182-1.116-.549-1.481-.329-.367-.951-.696-1.865-.989-.88-.33-2.233-.695-4.063-1.098-3.256-.658-5.599-1.592-7.026-2.799-1.391-1.207-2.086-2.873-2.086-4.995 0-1.61.475-3.056 1.427-4.338.951-1.316 2.25-2.323 3.897-3.019 1.684-.73 3.587-1.098 5.709-1.098 1.537 0 3.02.203 4.447.605 1.361.337 2.659.893 3.843 1.645 1.171.733 1.756 1.703 1.756 2.911 0 .731-.201 1.355-.604 1.866-.402.476-.897.715-1.483.715-.402 0-.805-.075-1.207-.22a35.502 35.502 0 0 1-1.427-.77c-1.062-.548-1.976-.95-2.745-1.206-.769-.293-1.72-.44-2.854-.44-1.354 0-2.434.275-3.239.823-.769.549-1.153 1.3-1.153 2.251 0 .915.403 1.61 1.208 2.085.806.477 2.361.953 4.666 1.429 2.453.512 4.373 1.096 5.764 1.756 1.391.658 2.378 1.482 2.964 2.47.623.989.933 2.251.933 3.788 0 2.488-1.043 4.483-3.128 5.983-2.05 1.5-4.795 2.25-8.235 2.25Z"/></g><defs><clipPath id="a"><path fill="#fff" d="M.158.02h205.03v52.605H.158z"/></clipPath></defs></svg>