<svg xmlns="http://www.w3.org/2000/svg" width="211" height="50" fill="none"><g clip-path="url(#a)"><path fill="#9C9C9C" d="M4 39.153c-1.04 0-1.882-.323-2.527-.968-.61-.645-.915-1.488-.915-2.527V4.199c0-1.04.287-1.846.86-2.42.61-.573 1.435-.86 2.474-.86h18.876c2.186 0 3.28.932 3.28 2.796 0 1.828-1.093 2.743-3.28 2.743H7.388v10.324h14.304c2.187 0 3.28.933 3.28 2.797 0 1.828-1.093 2.742-3.28 2.742H7.388v13.337c0 1.04-.305 1.882-.914 2.527-.61.645-1.434.968-2.474.968Zm31.913 0c-.968 0-1.774-.269-2.42-.807-.61-.573-.914-1.38-.914-2.42V3.824c0-1.04.305-1.829.914-2.366.645-.538 1.452-.807 2.42-.807s1.775.269 2.42.807c.645.537.968 1.326.968 2.366v32.104c0 1.04-.323 1.846-.968 2.42-.645.537-1.452.806-2.42.806Zm31.13-7.528c.61 0 1.094.233 1.453.699.394.466.591 1.093.591 1.882 0 1.111-.663 2.043-1.99 2.796-1.218.681-2.598 1.237-4.14 1.667-1.542.395-3.011.592-4.41.592-4.23 0-7.582-1.22-10.056-3.657-2.473-2.438-3.71-5.772-3.71-10.002 0-2.69.538-5.073 1.613-7.152 1.076-2.08 2.581-3.693 4.517-4.84 1.972-1.147 4.195-1.721 6.669-1.721 2.366 0 4.427.52 6.184 1.56 1.756 1.04 3.119 2.509 4.087 4.409.968 1.9 1.451 4.14 1.451 6.722 0 1.542-.68 2.312-2.043 2.312H51.395c.215 2.474.914 4.302 2.097 5.485 1.184 1.148 2.904 1.721 5.163 1.721 1.147 0 2.151-.143 3.011-.43.897-.287 1.9-.681 3.012-1.183 1.075-.574 1.864-.86 2.366-.86ZM57.74 16.62c-1.828 0-3.298.574-4.41 1.721-1.075 1.147-1.72 2.796-1.935 4.947h12.153c-.072-2.187-.61-3.836-1.613-4.947-1.004-1.147-2.402-1.72-4.194-1.72Zm39.337 17.262c.646.645.968 1.38.968 2.205 0 .789-.305 1.506-.914 2.15-.61.61-1.326.915-2.151.915-.896 0-1.667-.376-2.312-1.13l-7.583-8.388-7.582 8.389c-.681.717-1.452 1.075-2.312 1.075-.79 0-1.488-.304-2.098-.914-.61-.61-.914-1.308-.914-2.097 0-.825.323-1.56.968-2.205l7.851-8.55-7.42-8.066c-.646-.646-.969-1.38-.969-2.205 0-.825.305-1.524.915-2.098.609-.609 1.308-.914 2.097-.914.86 0 1.631.359 2.312 1.076l7.152 7.851 7.152-7.851c.682-.717 1.452-1.076 2.313-1.076.824 0 1.523.305 2.097.914.61.574.914 1.273.914 2.098 0 .824-.323 1.56-.968 2.205l-7.42 8.066 7.904 8.55Zm29.751-14.627c2.187.61 3.872 1.721 5.055 3.334 1.219 1.613 1.828 3.585 1.828 5.916 0 3.226-1.165 5.754-3.495 7.582-2.295 1.828-5.468 2.742-9.519 2.742h-13.874c-1.039 0-1.864-.286-2.473-.86-.574-.574-.861-1.38-.861-2.42V4.2c0-1.04.287-1.847.861-2.42.609-.574 1.434-.861 2.473-.861h13.335c3.944 0 7.027.878 9.25 2.635 2.258 1.72 3.388 4.14 3.388 7.26 0 2.007-.538 3.746-1.614 5.216-1.039 1.47-2.491 2.545-4.355 3.226h.001Zm-16.563-2.366h8.765c4.768 0 7.152-1.774 7.152-5.324 0-1.792-.591-3.119-1.774-3.98-1.183-.86-2.976-1.29-5.378-1.29h-8.765V16.89Zm9.68 16.563c2.509 0 4.337-.448 5.485-1.345 1.147-.896 1.72-2.294 1.72-4.194s-.591-3.316-1.774-4.248c-1.147-.932-2.958-1.398-5.431-1.398h-9.68v11.185h9.68Zm22.995 5.7c-.968 0-1.775-.269-2.42-.807-.609-.573-.914-1.38-.914-2.42V3.824c0-1.04.305-1.829.914-2.366.645-.538 1.452-.807 2.42-.807s1.775.269 2.42.807c.645.537.968 1.326.968 2.366v32.104c0 1.04-.323 1.846-.968 2.42-.645.537-1.452.806-2.42.806Zm22.312.108c-2.689 0-5.055-.556-7.099-1.667-2.007-1.112-3.567-2.707-4.678-4.786-1.112-2.08-1.667-4.5-1.667-7.26s.555-5.162 1.667-7.206c1.111-2.08 2.671-3.675 4.678-4.786 2.044-1.111 4.41-1.667 7.099-1.667 2.688 0 5.037.556 7.044 1.667a11.17 11.17 0 0 1 4.679 4.786c1.111 2.044 1.667 4.445 1.667 7.206 0 2.76-.556 5.18-1.667 7.26a11.17 11.17 0 0 1-4.679 4.786c-2.007 1.11-4.356 1.667-7.044 1.667Zm-.054-5.217c2.187 0 3.854-.717 5.001-2.15 1.147-1.435 1.721-3.55 1.721-6.346 0-2.76-.574-4.858-1.721-6.292-1.147-1.47-2.796-2.205-4.947-2.205-2.151 0-3.818.735-5.002 2.205-1.147 1.434-1.72 3.531-1.72 6.292 0 2.796.573 4.911 1.72 6.345 1.148 1.434 2.797 2.151 4.948 2.151Zm41.256-22.047c1.004 0 1.81.286 2.42.86.609.574.914 1.344.914 2.312V36.41c0 4.123-1.147 7.242-3.442 9.357-2.294 2.116-5.682 3.173-10.163 3.173-3.908 0-7.17-.735-9.787-2.205-1.327-.788-1.99-1.738-1.99-2.85 0-.788.179-1.416.538-1.882.394-.466.896-.699 1.505-.699.323 0 .717.072 1.183.215.466.18.95.377 1.452.592 1.291.538 2.438.95 3.442 1.237 1.04.286 2.223.43 3.549.43 4.697 0 7.045-2.295 7.045-6.883v-3.442c-.789 1.47-1.936 2.617-3.442 3.441-1.506.79-3.226 1.184-5.162 1.184-2.295 0-4.338-.538-6.131-1.614-1.756-1.111-3.137-2.653-4.14-4.624-1.004-1.972-1.506-4.249-1.506-6.83 0-2.581.484-4.858 1.452-6.83 1.004-2.007 2.402-3.548 4.194-4.624 1.793-1.111 3.836-1.667 6.131-1.667 1.936 0 3.656.412 5.162 1.237a8.054 8.054 0 0 1 3.442 3.388v-1.398c0-.933.304-1.685.914-2.26.609-.573 1.416-.86 2.42-.86ZM196.289 32.86c2.151 0 3.818-.699 5.001-2.097 1.219-1.398 1.829-3.316 1.829-5.754 0-2.474-.61-4.41-1.829-5.808-1.183-1.398-2.85-2.097-5.001-2.097-2.115 0-3.782.7-5.001 2.097-1.219 1.399-1.828 3.334-1.828 5.808 0 2.438.609 4.356 1.828 5.754 1.219 1.398 2.886 2.097 5.001 2.097Z"/></g><defs><clipPath id="a"><path fill="#fff" d="M.558.65h209.98v48.654H.558z"/></clipPath></defs></svg>