<svg xmlns="http://www.w3.org/2000/svg" width="188" height="69" fill="none"><g clip-path="url(#a)"><path fill="#9C9C9C" d="m33.82 15.222-6.207 38.17h-8.92L20.96 39.61h-9.607l-2.22 13.783H.217l6.257-38.17h8.87l-2.66 16.116h9.606l2.663-16.116h8.867Zm18.292 38.17.297-8.322h-8.228l-2.415 8.322h-9.41l12.663-38.17h16.258l.198 38.17h-9.363ZM50.093 24.5l-3.892 13.466h6.455l.54-13.464-3.103-.002Zm49.648-9.277-6.209 38.17h-8.918l-6.207-20.886-3.35 20.888h-8.92l6.257-38.172h9.164l6.11 19.51 3.202-19.51h8.871Zm20.807 0c4.303 0 7.374 1.167 9.213 3.499 1.347 1.767 2.019 3.976 2.019 6.627a19.9 19.9 0 0 1-.244 3.021l-1.922 11.823c-.657 3.993-2.268 7.193-4.829 9.596-2.563 2.404-5.88 3.604-9.955 3.604h-14.337l6.259-38.17h13.796Zm-3.105 8.271h-3.202l-3.498 21.628h4.681c1.543 0 2.742-.442 3.596-1.325.887-.92 1.494-2.403 1.821-4.452l1.431-8.695c.124-.702.19-1.411.197-2.122 0-3.359-1.674-5.034-5.026-5.034Zm40.744 29.9h-24.734l6.26-38.171h24.734l-1.379 8.271h-15.866l-1.133 7.157h13.106l-1.379 8.269h-13.107l-.985 6.203h15.866l-1.383 8.27Zm28.145 0h-22.469l6.259-38.171h8.869l-4.877 29.9h13.598l-1.38 8.27Zm-87.011 6.792h85.712l-2.678 7.934H96.643l2.678-7.934ZM9.59.675h93.748L100.66 8.61H6.913L9.59.675Z"/></g><defs><clipPath id="a"><path fill="#fff" d="M.217.675h187.495V68.12H.217z"/></clipPath></defs></svg>