<svg xmlns="http://www.w3.org/2000/svg" width="281" height="56" fill="none"><g clip-path="url(#a)"><mask id="b" width="267" height="54" x="0" y="-1" maskUnits="userSpaceOnUse" style="mask-type:luminance"><path fill="#fff" d="M.367-.05h266.316v52.496H.367V-.05Z"/></mask><g mask="url(#b)"><path fill="#9C9C9C" fill-rule="evenodd" d="M18.209 46.201a1.112 1.112 0 0 1-.877-.44 3.119 3.119 0 0 1-.577-1.318 17.874 17.874 0 0 1-.32-1.843c-.088-.798-.133-1.6-.135-2.404a144.35 144.35 0 0 1 .017-5.293c.024-1.083.034-1.928.034-2.537V12.197c0-.993.006-1.749.018-2.267.011-.519.05-1.105.116-1.76.039-.486.123-.967.255-1.437.128-.363.298-.708.506-1.032.192-.34.471-.62.81-.812.395-.197.8-.371 1.215-.525a8.092 8.092 0 0 1 1.653-.422 48.69 48.69 0 0 1 2.213-.272V1.807l-.576-.576H2.175l-.54.576v1.59c3.42.204 5.333 1.175 5.738 2.91.235 1.467.348 2.95.338 4.433v30.892a31.022 31.022 0 0 1-.204 4.805c-.093.248-.23.476-.404.676-.261.312-.537.61-.826.896-.23.222-.45.453-.658.694v1.184c17.396 0 28.164.113 32.303.34l1.454-4.907-.912-.644A202.643 202.643 0 0 1 18.21 46.2l-.001.001Zm32.337-14.143a.932.932 0 0 1-.203.034c-.337 0-.506-.123-.506-.372.002-1.121.086-2.241.254-3.35.19-1.209.506-2.395.945-3.535a13.434 13.434 0 0 1 1.725-3.249 8.105 8.105 0 0 1 6.565-3.231 5.3 5.3 0 0 1 4.692 2.335 9.29 9.29 0 0 1 1.587 5.346 1.715 1.715 0 0 1-1.132 1.59 55.131 55.131 0 0 1-5.654 1.93 379.947 379.947 0 0 0-8.066 2.47.945.945 0 0 0-.207.032Zm20.05 10.557c-4.052 2.458-7.552 3.688-10.496 3.688a9.598 9.598 0 0 1-5.605-1.659 10.034 10.034 0 0 1-3.527-4.144 12.796 12.796 0 0 1-1.13-5.362c14.717-4.579 22.143-6.87 22.278-6.87a2.494 2.494 0 0 0 1.99-2.57 9.651 9.651 0 0 0-1.13-4.771 8.252 8.252 0 0 0-3.055-3.164 14.796 14.796 0 0 0-4.169-1.658 21.29 21.29 0 0 0-4.846-.525 20.434 20.434 0 0 0-8.504 1.71 16.304 16.304 0 0 0-6.092 4.568 20.774 20.774 0 0 0-3.527 6.428 22.993 22.993 0 0 0-1.217 7.461c0 5.211 1.409 9.114 4.22 11.708 2.543 2.369 6.133 3.552 10.768 3.552a17.376 17.376 0 0 0 7.647-1.86 59.027 59.027 0 0 0 8.185-4.943l-.739-1.316-1.05-.273Zm45.465-35.677a9.883 9.883 0 0 0-4.963-5.38 20.953 20.953 0 0 0-8.945-1.624 26.269 26.269 0 0 0-6.632.812 20.183 20.183 0 0 0-5.705 2.436A11.72 11.72 0 0 0 85.715 7.6a13.194 13.194 0 0 0-1.52 6.41 9.828 9.828 0 0 0 1.13 4.584 12.81 12.81 0 0 0 2.836 3.707 34.467 34.467 0 0 0 3.982 3.028 46.418 46.418 0 0 0 4.356 2.57 75.337 75.337 0 0 1 4.152 2.303 18.647 18.647 0 0 1 3.157 2.25c2.496 2.323 3.746 4.533 3.746 6.632a8.165 8.165 0 0 1-2.599 5.937 8.55 8.55 0 0 1-6.245 2.589 8.91 8.91 0 0 1-7.139-3.249 11.146 11.146 0 0 1-2.75-7.412l-1.315-.473-6.717 7.545a15.726 15.726 0 0 0 6.043 5.194 17.727 17.727 0 0 0 7.932 1.812c2.508-.013 5-.401 7.393-1.152a27.272 27.272 0 0 0 6.819-3.13 16.48 16.48 0 0 0 5.012-5.007 11.746 11.746 0 0 0 1.941-6.447c.01-1.23-.207-2.451-.64-3.603a11.53 11.53 0 0 0-1.655-2.978 14.774 14.774 0 0 0-2.819-2.655 36.11 36.11 0 0 0-3.595-2.388 123.442 123.442 0 0 0-4.523-2.453 58.766 58.766 0 0 1-3.139-1.642 37.559 37.559 0 0 1-2.84-1.836 14.23 14.23 0 0 1-2.563-2.253 10.433 10.433 0 0 1-1.621-2.64 8.041 8.041 0 0 1-.675-3.265 6.871 6.871 0 0 1 1.972-4.974 6.955 6.955 0 0 1 5.215-2.03 8.09 8.09 0 0 1 6.363 2.672 11.833 11.833 0 0 1 2.886 6.463l1.182.372 6.584-5.143Zm32.826 12.976a6.833 6.833 0 0 0-2.532-2.538 12.185 12.185 0 0 0-3.341-1.302 17.133 17.133 0 0 0-3.831-.406c-2.457-.034-4.9.384-7.207 1.236a15.66 15.66 0 0 0-5.333 3.265 17.723 17.723 0 0 0-3.511 4.786 22.736 22.736 0 0 0-2.009 5.668 29.614 29.614 0 0 0-.607 6.056 17.82 17.82 0 0 0 .725 5.106 15.214 15.214 0 0 0 2.177 4.484 10.043 10.043 0 0 0 3.967 3.248c1.816.83 3.794 1.241 5.789 1.201 6.324 0 12.265-2.786 17.823-8.357l-.675-.981-.844-.203c-4.117 3.18-7.921 4.77-11.409 4.77a8.07 8.07 0 0 1-3.763-.862 7.593 7.593 0 0 1-2.688-2.232 13.565 13.565 0 0 1-1.705-3.147 16.885 16.885 0 0 1-.962-3.467 21.547 21.547 0 0 1-.27-3.384 26.78 26.78 0 0 1 .371-4.297 29.234 29.234 0 0 1 1.182-4.653 9.71 9.71 0 0 1 2.397-3.926 5.17 5.17 0 0 1 3.713-1.539 4.966 4.966 0 0 1 4.59 2.505 11.88 11.88 0 0 1 1.486 6.158l1.181.474 6.38-3.789a8.574 8.574 0 0 0-1.094-3.874Zm12.372 10.066a20.67 20.67 0 0 1 .895-3.907 14.597 14.597 0 0 1 1.636-3.502 7.834 7.834 0 0 1 2.617-2.453 7.206 7.206 0 0 1 3.73-.964 7.453 7.453 0 0 1 4.033 1.065 7.033 7.033 0 0 1 2.616 2.91 15.492 15.492 0 0 1 1.315 3.908c.278 1.46.415 2.945.406 4.432 0 1.354-.012 2.482-.035 3.383a41.053 41.053 0 0 1-.236 3.25 19.504 19.504 0 0 1-.556 3.146c-.266.909-.61 1.792-1.03 2.64a6.615 6.615 0 0 1-1.637 2.198 8.108 8.108 0 0 1-2.397 1.353 9.29 9.29 0 0 1-3.291.542 5.99 5.99 0 0 1-3.461-1.05 7.76 7.76 0 0 1-2.412-2.587A15.971 15.971 0 0 1 162 40.807a23.547 23.547 0 0 1-.777-3.706 28.058 28.058 0 0 1-.202-3.265c-.001-1.29.079-2.577.238-3.857Zm-4.186 17.494c2.452 2.233 6.346 3.35 11.68 3.35a24.256 24.256 0 0 0 5.856-.678 17.273 17.273 0 0 0 5.093-2.182 15.077 15.077 0 0 0 4.068-3.773 17.596 17.596 0 0 0 2.667-5.617 26.768 26.768 0 0 0 .98-7.51 14.097 14.097 0 0 0-4.625-10.896c-2.814-2.525-6.899-3.789-12.253-3.789-5.356 0-9.767 1.658-13.233 4.974a16.633 16.633 0 0 0-5.198 12.553c0 6.046 1.653 10.568 4.961 13.568h.004Zm52.826-26.798c1.8 0 3.083.361 3.848 1.083a5.924 5.924 0 0 1 1.299 3.047c.283 1.32.458 2.661.523 4.01.045 1.184.068 2.712.068 4.584-.002 2.43-.018 4.861-.05 7.292-.011.732-.006 1.595.016 2.589.006.74.051 1.48.135 2.215.068.486.158 1.017.271 1.59.078.482.238.944.472 1.37.202.34.451.648.74.915a5.227 5.227 0 0 0 3.712 1.353c1.689 0 3.623-.858 5.806-2.571a63.634 63.634 0 0 0 5.199-4.84l-.776-1.153h-.811a8.228 8.228 0 0 1-4.623 1.794 2.644 2.644 0 0 1-1.959-.71 2.633 2.633 0 0 1-.592-.658 4.863 4.863 0 0 1-.353-1.388 19.62 19.62 0 0 1-.169-2.927c0-.744.04-1.946.118-3.603a90.68 90.68 0 0 0 .119-3.537v-2.03c.022-2.188.016-3.704-.017-4.552a31.976 31.976 0 0 0-.389-3.45 6.28 6.28 0 0 0-1.046-3.012 7.032 7.032 0 0 0-2.094-1.556 7.336 7.336 0 0 0-3.442-.728c-3.961 0-8.552 1.625-13.772 4.873l-.811-.305a6.413 6.413 0 0 0-1.163-3.467c-.665-.87-1.807-1.303-3.427-1.303a9.216 9.216 0 0 0-2.852.49 13.8 13.8 0 0 0-3.04 1.454 46.294 46.294 0 0 0-2.667 1.794 80.622 80.622 0 0 0-2.616 2.013l1.249 1.658c.229-.148.46-.295.692-.44.393-.247.737-.45 1.03-.609.292-.157.641-.343 1.046-.558a7.122 7.122 0 0 1 1.132-.494c.298-.102.61-.16.927-.169.39-.009.776.09 1.114.288.343.227.601.56.74.948.169.41.315.825.438 1.25.138.573.217 1.157.236 1.744.046.768.073 1.388.082 1.86.011.473.016 1.184.017 2.133v.576c0 2.21-.169 8.976-.506 20.3l.844.474 7.595-2.2c-.225-.97-.394-4.026-.507-9.167-.112-5.03-.166-10.061-.164-15.092 3.916-2.12 6.706-3.18 8.371-3.18l.007.002Zm32.742 11.536a.882.882 0 0 1-.202.036c-.337 0-.506-.124-.507-.371.001-1.123.086-2.242.255-3.351.189-1.209.506-2.394.944-3.537a13.465 13.465 0 0 1 1.722-3.248 8.097 8.097 0 0 1 6.565-3.231 5.294 5.294 0 0 1 4.692 2.335 9.279 9.279 0 0 1 1.586 5.346 1.718 1.718 0 0 1-1.131 1.59 55.346 55.346 0 0 1-5.652 1.93 377.697 377.697 0 0 0-8.068 2.47 1.003 1.003 0 0 0-.202.032l-.002-.001Zm20.051 10.558c-4.052 2.46-7.552 3.689-10.498 3.687a9.61 9.61 0 0 1-5.604-1.656 10.04 10.04 0 0 1-3.526-4.145 12.8 12.8 0 0 1-1.132-5.365c14.718-4.577 22.144-6.866 22.28-6.866a2.5 2.5 0 0 0 1.991-2.573 9.655 9.655 0 0 0-1.131-4.77 8.249 8.249 0 0 0-3.055-3.164 14.807 14.807 0 0 0-4.169-1.658 21.274 21.274 0 0 0-4.847-.525 20.433 20.433 0 0 0-8.502 1.71 16.304 16.304 0 0 0-6.092 4.568 20.754 20.754 0 0 0-3.527 6.428 22.943 22.943 0 0 0-1.215 7.461c0 5.211 1.406 9.112 4.219 11.708 2.542 2.368 6.131 3.551 10.768 3.551a17.38 17.38 0 0 0 7.646-1.86 59.21 59.21 0 0 0 8.185-4.94l-.739-1.318-1.052-.273Z" clip-rule="evenodd"/></g></g><defs><clipPath id="a"><path fill="#fff" d="M.367.225h280.592v55.31H.367z"/></clipPath></defs></svg>