<svg xmlns="http://www.w3.org/2000/svg" width="200" height="50" fill="none"><g clip-path="url(#a)"><path fill="#9C9C9C" d="M65.713 48.356V.444H53.606L28.29 37.414l-4.274-5.374c7.64-1.166 11.914-7.9 11.914-15.086 0-6.863-3.755-12.626-8.806-14.827C24.6 1.027 20.844.444 15.858.444H.125v47.912h11.72V32.882h.129l11.071 15.474h12.367l4.208-6.928h13.856v6.928h12.237ZM11.844 24.529V11.191h4.662c4.597 0 7.705 2.331 7.705 6.475 0 4.403-2.914 6.863-7.77 6.863h-4.597Zm41.632 7.187h-8.029l7.9-13.273h.13v13.273Zm61.345 16.64V.444h-11.719l.518 30.301L84.972.444H74.42v47.912h11.719l-.324-29.265 18.388 29.265h10.619Zm35.338 0V37.608h-14.892v-8.223h14.439V18.637h-14.439v-7.446h14.892V.444h-26.611v47.912h26.611Zm48.643 0-16.899-24.021L197.766.444h-12.82l-13.532 21.56h-.129V.444h-12.237v47.912h12.237V27.637h.129l13.079 20.719h14.309Z"/></g><defs><clipPath id="a"><path fill="#fff" d="M.125.444H199.76v48.56H.125z"/></clipPath></defs></svg>