<svg xmlns="http://www.w3.org/2000/svg" width="257" height="64" fill="none"><g fill="#9C9C9C" clip-path="url(#a)"><path d="M69.67 57.154c-4.252 0-7.51-.727-9.778-2.182-2.228-1.495-3.34-3.678-3.34-6.547 0-1.455.486-2.648 1.457-3.578 1.013-.969 2.308-1.454 3.887-1.454.93.04 1.639.281 2.125.727.487.405.73.789.73 1.152 0 .04-.203.182-.608.424-.404.243-.768.607-1.093 1.091-.324.486-.487 1.152-.487 2.001 0 1.9.569 3.375 1.702 4.426 1.174 1.01 2.975 1.515 5.404 1.515 1.66 0 3.118-.323 4.374-.97 1.255-.646 2.206-1.495 2.854-2.546.687-1.09 1.032-2.223 1.032-3.395 0-1.455-.425-2.707-1.276-3.758a9.99 9.99 0 0 0-3.035-2.607c-1.217-.727-2.876-1.557-4.98-2.486-2.43-1.091-4.392-2.081-5.89-2.971a12.67 12.67 0 0 1-3.829-3.516c-1.051-1.495-1.577-3.334-1.577-5.517 0-3.516 1.193-6.143 3.582-7.88 2.43-1.74 5.608-2.607 9.535-2.607 3.077 0 5.749.646 8.016 1.94 2.309 1.293 3.463 3.193 3.463 5.697 0 1.456-.507 2.668-1.519 3.639-.972.93-2.247 1.394-3.826 1.394-.932-.04-1.64-.264-2.125-.667-.487-.444-.73-.849-.73-1.212 0-.041.264-.182.79-.426a3.835 3.835 0 0 0 1.457-1.09c.446-.486.668-1.153.668-2 0-1.496-.586-2.669-1.76-3.518-1.134-.848-2.591-1.272-4.374-1.272-2.468 0-4.352.586-5.646 1.758-1.256 1.132-1.884 2.546-1.884 4.244 0 1.414.385 2.607 1.154 3.576.768.93 2.004 1.86 3.704 2.789a78.422 78.422 0 0 0 4.494 2.183c2.592 1.171 4.636 2.243 6.135 3.214a12.313 12.313 0 0 1 3.825 3.819c1.053 1.575 1.58 3.536 1.58 5.88 0 2.021-.648 3.86-1.943 5.518-1.255 1.616-2.977 2.888-5.163 3.818-2.146.93-4.514 1.394-7.106 1.394Zm30.745-.484c-2.753 0-4.94-.83-6.56-2.486-1.62-1.657-2.429-3.84-2.429-6.548V36.42c0-1.05-.04-1.818-.121-2.303-.04-.484-.283-.91-.73-1.273-.444-.364-1.193-.546-2.246-.546-.486 0-.85-.06-1.093-.181-.243-.162-.364-.506-.364-1.031 0-.243.08-.465.243-.666.162-.243.405-.384.729-.425 2.55-.365 4.737-.89 6.558-1.577.567-.201 1.032-.323 1.397-.364h.182c.648 0 .973.384.973 1.152v18.37c0 1.859.586 3.294 1.76 4.304a6.201 6.201 0 0 0 4.069 1.455c1.903 0 3.521-.465 4.858-1.395 1.337-.93 2.228-1.859 2.672-2.788v-12.73c0-1.052-.04-1.819-.12-2.305-.041-.484-.285-.91-.73-1.273-.446-.364-1.195-.546-2.247-.546-.487 0-.85-.06-1.092-.181-.244-.162-.365-.506-.365-1.031 0-.243.08-.465.243-.666.161-.243.405-.384.729-.425 2.55-.365 4.737-.89 6.559-1.577.566-.201 1.032-.323 1.396-.364h.183c.647 0 .971.384.971 1.152v20.978c0 2.385 1.6 3.577 4.798 3.577.687 0 1.032.384 1.032 1.152 0 .565-.345.91-1.032 1.03l-9.778.667c-.283 0-.446-.101-.487-.302-.038-.163-.06-.465-.06-.91v-3.396h-.12a73.675 73.675 0 0 1-2.856 2.545c-.728.566-1.679 1.052-2.855 1.456-1.133.444-2.489.666-4.067.666v.001Zm24.577-.545a.919.919 0 0 1-.729-.365 1.49 1.49 0 0 1-.244-.848c.041-.525.163-.83.365-.909.204-.121.567-.183 1.094-.183 1.052 0 1.801-.182 2.247-.545.445-.364.689-.79.728-1.273.082-.487.122-1.254.122-2.305V35.814c0-1.05-.04-1.818-.122-2.304-.039-.484-.283-.91-.728-1.272-.446-.363-1.195-.546-2.247-.546-.487 0-.85-.06-1.092-.182-.244-.162-.365-.505-.365-1.031 0-.242.08-.465.243-.666.161-.243.405-.384.728-.425 2.632-.405 4.798-.93 6.498-1.576.689-.202 1.154-.324 1.397-.364h.182c.648 0 .972.384.972 1.153v3.758h.182c1.417-1.415 2.855-2.527 4.312-3.335 1.458-.848 2.773-1.272 3.947-1.272 1.337 0 2.389.504 3.159 1.514.809.971 1.214 2.103 1.214 3.396a4.813 4.813 0 0 1-1.032 3.03c-.689.89-1.64 1.335-2.854 1.335a3.127 3.127 0 0 1-1.519-.364c-.404-.243-.627-.444-.668-.605.041-.081.243-.324.607-.729a2.32 2.32 0 0 0 .547-1.515c0-.728-.203-1.313-.607-1.758-.365-.445-.871-.667-1.519-.667-.687 0-1.558.343-2.611 1.031-1.053.647-2.085 1.475-3.097 2.485v14.792c0 1.051.04 1.818.121 2.305.082.484.344.909.79 1.273.445.363 1.194.545 2.247.545h.365c.323 0 .565.062.728.182.161.121.263.425.304.909 0 .324-.081.607-.244.849-.161.243-.404.365-.728.365a124.66 124.66 0 0 0-6.376-.183c-1.822 0-3.927.062-6.317.183Zm94.321.545c-2.753 0-5.202-.648-7.348-1.94-2.146-1.334-3.826-3.072-5.041-5.215a14.388 14.388 0 0 1-1.76-6.911c0-3.03.708-5.658 2.125-7.88 1.418-2.264 3.219-3.983 5.405-5.154 2.187-1.213 4.393-1.818 6.619-1.818 2.754 0 5.204.666 7.349 2a13.407 13.407 0 0 1 4.98 5.213 13.675 13.675 0 0 1 1.822 6.85c0 3.032-.729 5.68-2.186 7.944-1.417 2.222-3.219 3.94-5.405 5.152-2.186 1.173-4.373 1.76-6.56 1.76Zm0-2.243c2.754 0 4.758-1.173 6.013-3.517 1.296-2.343 1.943-5.375 1.943-9.093 0-3.477-.668-6.305-2.003-8.49-1.296-2.22-3.281-3.332-5.953-3.332-2.792 0-4.817 1.152-6.073 3.456-1.254 2.303-1.882 5.313-1.882 9.033 0 3.475.648 6.345 1.944 8.608 1.296 2.224 3.299 3.335 6.011 3.335Zm29.454 2.545c-1.985 0-3.685-.727-5.103-2.181-1.416-1.456-2.125-3.537-2.125-6.245V30.722l-3.522.122a.747.747 0 0 1-.607-.304 1.387 1.387 0 0 1-.243-.788c0-.364.061-.666.181-.91.163-.282.386-.444.669-.485 1.417-.281 2.511-.727 3.28-1.332.809-.648 1.397-1.335 1.761-2.062.365-.768.81-1.92 1.336-3.457.203-.525.648-.787 1.336-.787.283 0 .567.08.85.243.283.12.425.323.425.606l-.425 6.911 7.106-.425h.122c.526 0 .788.384.788 1.152 0 .445-.08.87-.243 1.273-.12.365-.283.547-.485.547l-6.802-.182v18.43c0 1.334.263 2.445.789 3.334.567.89 1.478 1.334 2.734 1.334 1.254 0 2.368-.223 3.339-.667.527-.203.85-.304.972-.304.284 0 .507.122.668.364.163.202.324.486.487.849a.688.688 0 0 1 .06.303c0 .161-.122.343-.365.545-1.174.769-2.287 1.275-3.339 1.517-1.013.281-2.228.423-3.644.423Zm-98.158-1.212c.161.243.404.363.728.363 2.104-.115 4.21-.176 6.316-.181 2.713 0 5.243.061 7.592.181a.763.763 0 0 0 .668-.363 1.5 1.5 0 0 0 .242-.85c-.04-.483-.141-.786-.303-.908-.122-.12-.364-.182-.729-.182h-.365c-1.335 0-2.287-.101-2.854-.303-.567-.201-.951-.566-1.153-1.091-.203-.566-.304-1.475-.304-2.727V30.84h6.438a.917.917 0 0 0 .728-.363 1.28 1.28 0 0 0 .304-.85c-.041-.483-.163-.787-.365-.908-.161-.162-.425-.243-.789-.243h-6.316V24.84c0-1.94.081-3.637.242-5.093a9.818 9.818 0 0 1 1.397-4.123c.769-1.252 1.964-1.878 3.584-1.878.185 0 .366.01.54.032-.023-.68.022-1.36.133-2.03a10.255 10.255 0 0 0-.248-.003c-3.563.08-6.337 1.434-8.32 4.062-1.944 2.587-2.915 5.962-2.915 10.124v2.547h-3.644c-.527 0-.891.06-1.094.181-.202.081-.324.405-.363.97 0 .324.08.607.242.849a.98.98 0 0 0 .79.365h4.069v18.854c0 1.092-.041 1.88-.122 2.365-.04.444-.283.849-.729 1.213-.445.363-1.194.545-2.247.545-.526 0-.891.062-1.093.182-.161.08-.263.384-.304.909 0 .324.081.607.244.849Z"/><path fill-rule="evenodd" d="M183.072 13.431a6.735 6.735 0 0 1-4.167 6.224 6.74 6.74 0 0 1-2.58.51 6.74 6.74 0 0 1-6.748-6.734 6.739 6.739 0 0 1 1.979-4.766 6.737 6.737 0 0 1 4.769-1.971 6.746 6.746 0 0 1 6.233 4.157c.339.818.514 1.694.514 2.58Zm-6.747 3.367a3.367 3.367 0 0 0 3.116-2.077 3.36 3.36 0 0 0 0-2.58 3.362 3.362 0 0 0-1.826-1.823 3.373 3.373 0 0 0-4.664 3.112 3.371 3.371 0 0 0 3.374 3.368Zm-2.958 6.299v32.482c0 .363.103.646.305.848.202.243.485.364.85.364.364 0 .667-.162.911-.484.243-.283.466-.708.668-1.274.202-.566.384-1.01.547-1.334h.303c2.631 1.98 5.749 2.97 9.352 2.97 2.43 0 4.717-.647 6.863-1.94 2.145-1.293 3.846-3.05 5.102-5.275 1.294-2.262 1.942-4.748 1.942-7.456 0-2.748-.566-5.193-1.7-7.336-1.092-2.182-2.611-3.88-4.554-5.092-1.944-1.212-4.11-1.818-6.498-1.818-1.459 0-2.936.302-4.434.909-1.457.566-2.773 1.434-3.948 2.607h-.181v-8.061a10.22 10.22 0 0 1-5.528-.11Zm18.342 28.176c-1.498 2.224-3.483 3.336-5.952 3.336-1.295 0-2.449-.283-3.462-.849-.972-.566-1.762-1.233-2.368-2.001-.568-.808-.911-1.537-1.032-2.182V33.572c1.74-1.86 3.886-2.79 6.437-2.79 2.875 0 5.04 1.132 6.498 3.396 1.457 2.223 2.186 4.91 2.186 8.063 0 3.759-.768 6.77-2.307 9.032ZM16.302 1.27a2.535 2.535 0 0 1 2.942 0c10.96 7.815 15.928 17.184 16.242 30.626.145 6.419-.474 12.296-2.357 17.373-1.934 5.08-5.369 9.773-10.426 13.736a2.536 2.536 0 0 1-2.254.436c-1.549-.445-1.813-2.278-2.676-3.42-.863 1.142-1.124 2.974-2.676 3.419a2.535 2.535 0 0 1-2.252-.436C7.788 59.042 4.351 54.35 2.42 49.27.537 44.192-.083 38.315.062 31.896.374 18.454 5.342 9.084 16.302 1.27Zm5.667 55.946c3.165-2.907 5.073-6.076 6.42-9.72 1.696-4.457 2.185-9.38 2.038-15.482-.243-10.482-2.701-17.303-10.144-23.635v18.524c2.91.748 4.216 3.598 4.216 6.735 0 3.14-1.306 5.99-4.216 6.737v15.156s1.352 1.245 1.686 1.685Zm-8.435 0c-3.165-2.907-5.028-6.076-6.376-9.72-1.695-4.457-2.185-9.38-2.036-15.482.243-10.46 2.688-17.31 10.1-23.635v18.524c-2.91.748-4.218 3.598-4.218 6.735 0 3.14 1.306 5.99 4.218 6.737v15.156s-1.365 1.26-1.688 1.685Zm4.217-26.946a3.371 3.371 0 0 0-3.373 3.368 3.37 3.37 0 0 0 3.373 3.368 3.37 3.37 0 0 0 3.374-3.367c0-1.86-1.51-3.369-3.373-3.369Z" clip-rule="evenodd"/></g><defs><clipPath id="a"><path fill="#fff" d="M.042.8h256.073v62.738H.042z"/></clipPath></defs></svg>