<svg xmlns="http://www.w3.org/2000/svg" width="252" height="45" fill="none"><g clip-path="url(#a)"><path fill="#9C9C9C" d="M27.962 43.128a8.951 8.951 0 0 1-4.328-.985 8.795 8.795 0 0 1-3.295-2.932 14.896 14.896 0 0 1-9.564 3.917c-6.386 0-9.847-4.435-8.678-10.794.889-4.78 4.865-9.572 5.976-13.418-2.151-1.29-5.344-2.19-6.841.448l-.982-.587c.783-2.891 2.677-4.815 5.413-4.815s4.76 1.601 7.367.127h2.081c-1.11 5.76-3.917 10.366-5.413 18.43-.912 4.942.783 7.188 3.649 7.188a8.692 8.692 0 0 0 5.47-2.892 23.055 23.055 0 0 1-1.695-8.858c0-7.004 3.263-14.386 8.735-14.386 2.807 0 4.887 1.923 4.887 6.485 0 4.56-2.805 11.622-6.384 16.056a4.6 4.6 0 0 0 1.588 2.705 4.722 4.722 0 0 0 2.973 1.086c5.215 0 8.863-7.708 8.863-14.837 0-7.13-3.133-6.808-2.864-9.215a2.29 2.29 0 0 1 .802-1.565 2.362 2.362 0 0 1 1.688-.554c1.626 0 3.764 2.027 3.764 10.252 0 10.481-5.658 19.144-13.212 19.144Zm-1.18-25.94c-1.626 0-3.194 5.909-3.392 12.013a25.79 25.79 0 0 0 .07 3.917 30.42 30.42 0 0 0 4.373-13.166c-.012-2.074-.397-2.766-1.053-2.766l.002.002Zm25.104 25.675c-.682.07-1.371-.01-2.02-.232a4.686 4.686 0 0 1-1.728-1.052 4.602 4.602 0 0 1-1.111-1.676 4.542 4.542 0 0 1-.287-1.982c0-2.822 3.72-16.887 3.72-19.202 0-1.093-.258-1.739-1.24-1.739a5.694 5.694 0 0 0-2.936 1.416v-1.992a9.654 9.654 0 0 1 6.197-2.5 4.802 4.802 0 0 1 2.027.257c.648.23 1.237.595 1.727 1.073.49.476.868 1.052 1.109 1.69a4.59 4.59 0 0 1 .282 1.991c0 2.822-3.717 16.83-3.717 19.133 0 1.094.256 1.74 1.24 1.74a6.144 6.144 0 0 0 2.934-1.349v1.923a9.523 9.523 0 0 1-6.197 2.5Zm4.56-40.65a3.563 3.563 0 0 1 1.486.274c.468.197.89.491 1.23.864a3.406 3.406 0 0 1 .873 2.778A4.4 4.4 0 0 1 58.6 8.892a4.526 4.526 0 0 1-2.926 1.154 3.555 3.555 0 0 1-1.485-.274 3.51 3.51 0 0 1-1.232-.864 3.406 3.406 0 0 1-.873-2.779 4.402 4.402 0 0 1 1.435-2.763 4.529 4.529 0 0 1 2.926-1.153ZM70.92 36.827c-.327 1.739-.128 2.949 1.111 2.949a5.885 5.885 0 0 0 2.935-1.348l.116 1.934a9.654 9.654 0 0 1-6.197 2.5c-4.045 0-5.611-2.89-5.015-6.484l3.976-22.289c1.321-7.441.864-8.42-3.182-8.42l.257-1.797 12.196-1.59-6.197 34.545Zm34.296-.059c-.328 1.74-.2 3.02 1.11 3.02a6.222 6.222 0 0 0 2.936-1.418v1.992a9.43 9.43 0 0 1-6.197 2.5 4.728 4.728 0 0 1-3.24-.98 4.594 4.594 0 0 1-1.719-2.878 10.616 10.616 0 0 1-3.684 3.036 10.782 10.782 0 0 1-4.664 1.134c-7.753 0-11.015-6.739-9.518-14.837 1.496-8.097 8.476-14.709 16.37-14.709 1.865-.039 3.711.393 5.367 1.255l.198-1.024c1.544-7.926.831-8.19-3.215-8.19l.198-1.797 12.254-1.59-6.197 34.488.001-.002Zm-8.408-20.237c-4.502 0-7.494 5.264-8.676 11.749-1.24 6.807-.456 11.519 3.777 11.519 2.864 0 6.127-3.457 7.109-8.732l2.409-13.36a8.364 8.364 0 0 0-4.62-1.176Zm29.01 26.653c-9.062 0-11.541-6.427-10.43-12.59l2.958-16.505c1.369-7.451.913-8.478-3.133-8.478l.256-1.797 12.231-1.532-2.478 13.995a11.022 11.022 0 0 1 6.841-2.637c7.892 0 11.598 6.612 10.172 14.709-1.426 8.098-8.687 14.835-16.417 14.835Zm4.233-26.492a6.309 6.309 0 0 0-3.643 1.247 6.152 6.152 0 0 0-2.203 3.118l-1.825 10.367c-1.111 6.163 1.112 8.673 3.918 8.673 4.104 0 6.653-4.491 8.021-11.875 1.216-6.612.106-11.495-4.279-11.495l.011-.035Zm24.543 15.389c0 4.942 2.409 7.58 7.016 7.58 2.339 0 5.741-1.6 7.893-3.721l.912 2.05a16.862 16.862 0 0 1-5.464 3.8 17.06 17.06 0 0 1-6.533 1.406c-6.84 0-11.471-5.01-11.471-11.818 0-10.079 8.477-17.727 16.628-17.727 4.958 0 7.751 2.695 7.751 5.84-.057 4.883-4.758 10.367-16.732 12.59Zm8.407-15.48c-3.718 0-7.295 5.332-8.278 12.97 7.495-1.799 10.687-6.809 10.757-10.022-.011-1.797-.865-2.949-2.49-2.949h.011Zm34.927 26.262a4.727 4.727 0 0 1-3.24-.98 4.589 4.589 0 0 1-1.717-2.88 10.247 10.247 0 0 1-3.593 3.04 10.396 10.396 0 0 1-4.592 1.13c-7.624 0-10.886-6.738-9.355-14.836 1.531-8.097 8.396-14.698 16.312-14.698 1.678-.009 3.34.32 4.887.969h7.437l-3.988 22.16c-.327 1.74-.198 3.02 1.112 3.02a6.222 6.222 0 0 0 2.934-1.418v1.992a9.43 9.43 0 0 1-6.197 2.5Zm-5.998-26.332c-4.374 0-7.436 5.264-8.607 11.749-1.239 6.807-.385 11.519 3.509 11.519 2.993 0 6.197-3.594 7.109-8.732l2.409-13.36a7.644 7.644 0 0 0-4.409-1.176h-.011Zm34.95 4.687c-1.766 0-2.223-1.347-2.736-2.764a3.16 3.16 0 0 0-1.189-1.787 3.238 3.238 0 0 0-2.073-.632 3.918 3.918 0 0 0-2.667.863 3.803 3.803 0 0 0-1.379 2.409c-.199 1.74 1.11 3.213 3.589 5.333l3.321 2.695a8.408 8.408 0 0 1 2.77 3.585 8.274 8.274 0 0 1 .492 4.478c-.842 4.815-4.887 7.775-10.302 7.775-6.524 0-10.687-3.79-10.231-6.358a2.866 2.866 0 0 1 .977-1.74 2.949 2.949 0 0 1 1.888-.702c1.696 0 2.338 1.279 2.865 2.949a4.62 4.62 0 0 0 1.847 2.34c.864.559 1.886.82 2.912.746a4.122 4.122 0 0 0 2.796-.919 4.008 4.008 0 0 0 1.437-2.535c.257-2.305-1.169-3.72-3.847-6.106l-3.262-2.822a8.075 8.075 0 0 1-2.597-3.338 7.95 7.95 0 0 1-.537-4.171c.585-3.087 3.508-6.912 10.231-6.912 5.215 0 8.477 2.891 8.185 5.206a2.51 2.51 0 0 1-.768 1.684 2.591 2.591 0 0 1-1.722.723Zm23.865-4.03h-6.326l-3.063 17.07c-.656 3.536-.129 5.138 1.823 5.138 1.041 0 2.677-.577 5.017-2.949l.128 2.5a11.368 11.368 0 0 1-3.861 2.918 11.525 11.525 0 0 1-4.745 1.066c-4.431 0-6.652-3.086-5.6-8.8l3.063-16.943h-4.946l.386-2.638h4.992l1.31-7.637h7.297l-1.369 7.636h6.327l-.433 2.639Z"/></g><defs><clipPath id="a"><path fill="#fff" d="M.25.933h250.952v43.532H.25z"/></clipPath></defs></svg>