<svg xmlns="http://www.w3.org/2000/svg" width="52" height="52" fill="none"><g fill="gray" fill-opacity=".3" opacity=".8"><path d="M38 48a2 2 0 1 1 0 4 2 2 0 0 1 0-4ZM50 48a2 2 0 1 1 0 4 2 2 0 0 1 0-4ZM14 36a2 2 0 1 1 0 4 2 2 0 0 1 0-4ZM26 36a2 2 0 1 1 0 4 2 2 0 0 1 0-4ZM38 36a2 2 0 1 1 0 4 2 2 0 0 1 0-4ZM50 36a2 2 0 1 1 0 4 2 2 0 0 1 0-4ZM14 24a2 2 0 1 1 0 4 2 2 0 0 1 0-4ZM26 24a2 2 0 1 1 0 4 2 2 0 0 1 0-4ZM38 24a2 2 0 1 1 0 4 2 2 0 0 1 0-4ZM50 24a2 2 0 1 1 0 4 2 2 0 0 1 0-4ZM2 12a2 2 0 1 1 0 4 2 2 0 0 1 0-4ZM14 12a2 2 0 1 1 0 4 2 2 0 0 1 0-4ZM26 12a2 2 0 1 1 0 4 2 2 0 0 1 0-4ZM38 12a2 2 0 1 1 0 4 2 2 0 0 1 0-4ZM50 12a2 2 0 1 1 0 4 2 2 0 0 1 0-4ZM2 0a2 2 0 1 1 0 4 2 2 0 0 1 0-4ZM14 0a2 2 0 1 1 0 4 2 2 0 0 1 0-4ZM26 0a2 2 0 1 1 0 4 2 2 0 0 1 0-4ZM38 0a2 2 0 1 1 0 4 2 2 0 0 1 0-4ZM50 0a2 2 0 1 1 0 4 2 2 0 0 1 0-4Z"/></g></svg>