<svg xmlns="http://www.w3.org/2000/svg" width="52" height="52" fill="none"><g fill="gray" fill-opacity=".3" opacity=".8"><path d="M14 4a2 2 0 1 1 0-4 2 2 0 0 1 0 4ZM2 4a2 2 0 1 1 0-4 2 2 0 0 1 0 4ZM38 16a2 2 0 1 1 0-4 2 2 0 0 1 0 4ZM26 16a2 2 0 1 1 0-4 2 2 0 0 1 0 4ZM14 16a2 2 0 1 1 0-4 2 2 0 0 1 0 4ZM2 16a2 2 0 1 1 0-4 2 2 0 0 1 0 4ZM38 28a2 2 0 1 1 0-4 2 2 0 0 1 0 4ZM26 28a2 2 0 1 1 0-4 2 2 0 0 1 0 4ZM14 28a2 2 0 1 1 0-4 2 2 0 0 1 0 4ZM2 28a2 2 0 1 1 0-4 2 2 0 0 1 0 4ZM50 40a2 2 0 1 1 0-4 2 2 0 0 1 0 4ZM38 40a2 2 0 1 1 0-4 2 2 0 0 1 0 4ZM26 40a2 2 0 1 1 0-4 2 2 0 0 1 0 4ZM14 40a2 2 0 1 1 0-4 2 2 0 0 1 0 4ZM2 40a2 2 0 1 1 0-4 2 2 0 0 1 0 4ZM50 52a2 2 0 1 1 0-4 2 2 0 0 1 0 4ZM38 52a2 2 0 1 1 0-4 2 2 0 0 1 0 4ZM26 52a2 2 0 1 1 0-4 2 2 0 0 1 0 4ZM14 52a2 2 0 1 1 0-4 2 2 0 0 1 0 4ZM2 52a2 2 0 1 1 0-4 2 2 0 0 1 0 4Z"/></g></svg>