<svg xmlns="http://www.w3.org/2000/svg" width="32" height="32" fill="none"><path fill="url(#a)" d="M22.666 22.653c-1.8 0-2.933.56-3.933 1.067-.867.44-1.573.8-2.733.8-1.2 0-1.867-.333-2.733-.8-1-.507-2.094-1.067-3.934-1.067-1.84 0-2.933.56-3.933 1.067-.574.293-1.08.547-1.694.693-.6.134-1.04.614-1.04 1.214v.133c0 .8.747 1.373 1.52 1.213.987-.2 1.734-.573 2.414-.92.867-.44 1.56-.8 2.733-.8 1.174 0 1.867.334 2.733.8 1 .507 2.094 1.067 3.934 1.067 1.84 0 2.933-.56 3.933-1.067.867-.44 1.573-.8 2.733-.8 1.2 0 1.867.334 2.734.8.693.347 1.44.734 2.44.934a1.254 1.254 0 0 0 1.493-1.214v-.12c0-.613-.453-1.093-1.053-1.226-.614-.134-1.107-.387-1.68-.694-1-.52-2.134-1.08-3.934-1.08Zm0-5.933c-1.8 0-2.933.573-3.933 1.067-.867.426-1.573.8-2.733.8-1.2 0-1.867-.334-2.733-.8-1-.507-2.094-1.067-3.934-1.067-1.84 0-2.933.573-3.933 1.067-.574.28-1.08.546-1.707.693-.587.133-1.026.613-1.026 1.213v.134A1.24 1.24 0 0 0 4.16 21.04c1-.2 1.747-.587 2.44-.92.867-.467 1.533-.8 2.733-.8 1.2 0 1.867.333 2.733.8 1 .507 2.094 1.067 3.934 1.067 1.84 0 2.933-.574 3.933-1.067.867-.467 1.534-.8 2.733-.8 1.2 0 1.867.333 2.734.8.693.347 1.44.733 2.44.933a1.255 1.255 0 0 0 1.493-1.226v-.12c0-.614-.453-1.094-1.053-1.227-.614-.133-1.107-.387-1.68-.693-1-.507-2.134-1.067-3.934-1.067ZM26.6 5.947c-1-.507-2.107-1.067-3.934-1.067-1.826 0-2.933.56-3.933 1.067-.867.426-1.573.8-2.733.8-1.2 0-1.867-.334-2.733-.8-1-.494-2.094-1.067-3.934-1.067-1.84 0-2.933.56-3.933 1.067-.574.293-1.08.546-1.694.693-.6.133-1.04.613-1.04 1.213v.094c0 .8.72 1.386 1.494 1.226 1-.2 1.747-.586 2.44-.92.867-.44 1.56-.8 2.733-.8 1.174 0 1.867.334 2.733.8 1 .507 2.094 1.067 3.934 1.067 1.84 0 2.933-.573 3.933-1.067.867-.426 1.573-.8 2.733-.8 1.2 0 1.867.334 2.734.8.693.347 1.44.734 2.44.934a1.253 1.253 0 0 0 1.493-1.227v-.12c0-.613-.453-1.093-1.053-1.227-.614-.133-1.107-.373-1.68-.666Zm-3.934 4.84c-1.8 0-2.933.573-3.933 1.066-.867.467-1.533.8-2.733.8-1.2 0-1.867-.333-2.733-.8-1-.506-2.094-1.066-3.934-1.066-1.84 0-2.933.573-3.933 1.066-.574.307-1.067.56-1.68.694-.6.133-1.054.613-1.054 1.226v.12a1.24 1.24 0 0 0 1.494 1.214c1-.2 1.747-.587 2.44-.92.867-.427 1.573-.8 2.733-.8 1.16 0 1.867.333 2.733.8 1 .506 2.094 1.066 3.934 1.066 1.84 0 2.933-.573 3.933-1.066.867-.427 1.573-.8 2.733-.8 1.2 0 1.867.333 2.734.8.693.346 1.44.733 2.44.933a1.253 1.253 0 0 0 1.493-1.213v-.12c0-.614-.453-1.094-1.053-1.227-.614-.133-1.107-.387-1.68-.693-1-.52-2.134-1.08-3.934-1.08Z"/><defs><linearGradient id="a" x1="16" x2="16" y1="4.88" y2="27.12" gradientUnits="userSpaceOnUse"><stop stop-color="#FFBF00"/><stop offset="1" stop-color="#F2A50C"/></linearGradient></defs></svg>