<svg width="32" height="32" viewBox="0 0 32 32" fill="none" xmlns="http://www.w3.org/2000/svg">
<g clip-path="url(#clip0_61_1008)">
<path d="M7.31644 12.7049C7.86044 11.899 8.60593 11.2441 9.55289 10.7404C10.52 10.2367 11.6181 9.98489 12.8471 9.98489C14.2776 9.98489 15.5671 10.3375 16.7156 11.0427C17.8841 11.7479 18.8009 12.7553 19.4658 14.0649C20.1508 15.3544 20.4933 16.8554 20.4933 18.568C20.4933 20.2806 20.1508 21.8018 19.4658 23.1316C18.8009 24.4412 17.8841 25.4587 16.7156 26.184C15.5671 26.9093 14.2776 27.272 12.8471 27.272C11.5979 27.272 10.4999 27.0302 9.55289 26.5467C8.62607 26.043 7.88059 25.3982 7.31644 24.6124V27H3.08533V4.63556H7.31644V12.7049ZM16.1716 18.568C16.1716 17.5606 15.96 16.6942 15.5369 15.9689C15.1339 15.2234 14.5899 14.6593 13.9049 14.2764C13.24 13.8936 12.5147 13.7022 11.7289 13.7022C10.9633 13.7022 10.2379 13.9037 9.55289 14.3067C8.888 14.6895 8.344 15.2536 7.92089 15.9991C7.51793 16.7446 7.31644 17.621 7.31644 18.6284C7.31644 19.6359 7.51793 20.5123 7.92089 21.2578C8.344 22.0033 8.888 22.5775 9.55289 22.9804C10.2379 23.3633 10.9633 23.5547 11.7289 23.5547C12.5147 23.5547 13.24 23.3532 13.9049 22.9502C14.5899 22.5473 15.1339 21.973 15.5369 21.2276C15.96 20.4821 16.1716 19.5956 16.1716 18.568Z" fill="white"/>
<path d="M25.4417 27.2116C24.6761 27.2116 24.0415 26.9799 23.5377 26.5164C23.0542 26.0329 22.8124 25.4385 22.8124 24.7333C22.8124 24.0281 23.0542 23.4439 23.5377 22.9804C24.0415 22.4969 24.6761 22.2551 25.4417 22.2551C26.1872 22.2551 26.8017 22.4969 27.2853 22.9804C27.7689 23.4439 28.0106 24.0281 28.0106 24.7333C28.0106 25.4385 27.7689 26.0329 27.2853 26.5164C26.8017 26.9799 26.1872 27.2116 25.4417 27.2116Z" fill="#FFBB00"/>
</g>
<defs>
<clipPath id="clip0_61_1008">
<rect width="32" height="32" fill="white"/>
</clipPath>
</defs>
</svg>
