<svg width="32" height="32" viewBox="0 0 32 32" fill="none" xmlns="http://www.w3.org/2000/svg">
<path d="M23 14H22.18L20.48 9.32C20.3393 8.9341 20.0836 8.60065 19.7474 8.36462C19.4112 8.12858 19.0108 8.00132 18.6 8H17C16.45 8 16 8.45 16 9C16 9.55 16.45 10 17 10H18.6L20.06 14H15.25L14.89 13H14.98C15.53 13 15.98 12.55 15.98 12C15.98 11.45 15.53 11 14.98 11H12C11.45 11 11 11.45 11 12C11 12.55 11.45 13 12 13H12.75L14.57 18H13.9C13.46 15.77 11.59 14.12 9.25 14.01C6.45 13.87 4 16.2 4 19C4 21.8 6.2 24 9 24C11.46 24 13.45 22.31 13.9 20H18.1C18.54 22.23 20.41 23.88 22.75 23.99C25.55 24.12 28 21.8 28 18.99C28 16.2 25.8 14 23 14ZM10 20H11.82C11.4 21.23 10.22 22.08 8.8 21.99C7.31 21.9 6.07 20.64 6 19.14C5.93 17.39 7.27 16 9 16C10.33 16 11.42 16.83 11.82 18H10C9.45 18 9 18.45 9 19C9 19.55 9.45 20 10 20ZM18.1 18H16.7L15.97 16H19C18.56 16.58 18.24 17.25 18.1 18ZM22.88 22C21.34 21.94 20.04 20.63 20 19.08C19.98 18.12 20.39 17.28 21.05 16.72L21.67 18.42C21.86 18.94 22.43 19.21 22.95 19.02C23.47 18.83 23.74 18.26 23.55 17.74L22.92 16.01L22.93 16C23.3309 15.9863 23.7305 16.0541 24.1045 16.1991C24.4785 16.3441 24.8193 16.5634 25.1062 16.8438C25.3932 17.1242 25.6203 17.4598 25.7739 17.8304C25.9275 18.201 26.0044 18.5989 26 19C26 20.72 24.62 22.06 22.88 22Z" fill="url(#paint0_linear_61_1008)"/>
<defs>
<linearGradient id="paint0_linear_61_1008" x1="16" y1="8" x2="16" y2="24" gradientUnits="userSpaceOnUse">
<stop stop-color="#FFBF00"/>
<stop offset="1" stop-color="#F2A50C"/>
</linearGradient>
</defs>
</svg>
