<svg width="32" height="32" viewBox="0 0 32 32" fill="none" xmlns="http://www.w3.org/2000/svg">
<g clip-path="url(#clip0_61_1008)">
<circle cx="16" cy="16" r="16" fill="white"/>
<path d="M23 13H22.18L20.48 8.32C20.3393 7.9341 20.0836 7.60065 19.7474 7.36462C19.4112 7.12858 19.0108 7.00132 18.6 7H17C16.45 7 16 7.45 16 8C16 8.55 16.45 9 17 9H18.6L20.06 13H15.25L14.89 12H14.98C15.53 12 15.98 11.55 15.98 11C15.98 10.45 15.53 10 14.98 10H12C11.45 10 11 10.45 11 11C11 11.55 11.45 12 12 12H12.75L14.57 17H13.9C13.46 14.77 11.59 13.12 9.25 13.01C6.45 12.87 4 15.2 4 18C4 20.8 6.2 23 9 23C11.46 23 13.45 21.31 13.9 19H18.1C18.54 21.23 20.41 22.88 22.75 22.99C25.55 23.12 28 20.8 28 17.99C28 15.2 25.8 13 23 13ZM10 19H11.82C11.4 20.23 10.22 21.08 8.8 20.99C7.31 20.9 6.07 19.64 6 18.14C5.93 16.39 7.27 15 9 15C10.33 15 11.42 15.83 11.82 17H10C9.45 17 9 17.45 9 18C9 18.55 9.45 19 10 19ZM18.1 17H16.7L15.97 15H19C18.56 15.58 18.24 16.25 18.1 17ZM22.88 21C21.34 20.94 20.04 19.63 20 18.08C19.98 17.12 20.39 16.28 21.05 15.72L21.67 17.42C21.86 17.94 22.43 18.21 22.95 18.02C23.47 17.83 23.74 17.26 23.55 16.74L22.92 15.01L22.93 15C23.3309 14.9863 23.7305 15.0541 24.1045 15.1991C24.4785 15.3441 24.8193 15.5634 25.1062 15.8438C25.3932 16.1242 25.6203 16.4598 25.7739 16.8304C25.9275 17.201 26.0044 17.5989 26 18C26 19.72 24.62 21.06 22.88 21Z" fill="url(#paint0_linear_61_1008)"/>
</g>
<defs>
<linearGradient id="paint0_linear_61_1008" x1="16" y1="7" x2="16" y2="23" gradientUnits="userSpaceOnUse">
<stop stop-color="#FFB60D"/>
<stop offset="1" stop-color="#E59317"/>
</linearGradient>
<clipPath id="clip0_61_1008">
<rect width="32" height="32" fill="white"/>
</clipPath>
</defs>
</svg>
